<?xml version="1.0" encoding="UTF-8"?>
<!DOCTYPE svg PUBLIC "-//W3C//DTD SVG 1.1//EN" "http://www.w3.org/Graphics/SVG/1.1/DTD/svg11.dtd">
<svg xmlns="http://www.w3.org/2000/svg" version="1.1" width="2500px" height="2500px" style="shape-rendering:geometricPrecision; text-rendering:geometricPrecision; image-rendering:optimizeQuality; fill-rule:evenodd; clip-rule:evenodd" xmlns:xlink="http://www.w3.org/1999/xlink">
<g><path style="opacity:0.999" fill="#03c99b" d="M 2494.5,-0.5 C 2494.83,-0.5 2495.17,-0.5 2495.5,-0.5C 2497.17,27.2792 2498.5,54.9458 2499.5,82.5C 2499.5,143.167 2499.5,203.833 2499.5,264.5C 2494.49,502.255 2470.66,738.255 2428,972.5C 2396.63,1143.92 2350.63,1311.25 2290,1474.5C 2238.7,1612.45 2172.7,1742.45 2092,1864.5C 2035.82,1948.18 1970.99,2025.01 1897.5,2095C 1767.19,2217.52 1619.85,2315.19 1455.5,2388C 1305.85,2453.66 1149.52,2490.83 986.5,2499.5C 955.167,2499.5 923.833,2499.5 892.5,2499.5C 759.822,2494.16 633.155,2463.66 512.5,2408C 438.489,2372.53 370.823,2327.86 309.5,2274C 292.5,2258.33 275.5,2242.67 258.5,2227C 232.717,2202.23 209.55,2175.4 189,2146.5C 175.575,2126.9 162.742,2106.9 150.5,2086.5C 151.025,2085.81 151.692,2085.31 152.5,2085C 244.334,2079.76 335.334,2068.09 425.5,2050C 462.959,2042.05 499.959,2032.39 536.5,2021C 592.212,2000.87 648.212,1981.54 704.5,1963C 859.362,1904.08 1004.36,1827.75 1139.5,1734C 1280.06,1636 1411.4,1526.17 1533.5,1404.5C 1537.23,1403.03 1540.9,1401.37 1544.5,1399.5C 1545.64,1398.22 1545.64,1396.89 1544.5,1395.5C 1546.9,1394.42 1549.24,1393.26 1551.5,1392C 1550.26,1392.08 1549.26,1391.91 1548.5,1391.5C 1549.95,1390.06 1550.95,1388.39 1551.5,1386.5C 1693.03,1242.53 1823.53,1089.87 1943,928.5C 2145.09,654.877 2320.75,363.877 2470,55.5C 2478.66,37.0161 2486.83,18.3494 2494.5,-0.5 Z"/></g>
<g><path style="opacity:1" fill="#03c99b" d="M -0.5,1619.5 C -0.5,1587.83 -0.5,1556.17 -0.5,1524.5C 9.43975,1344.07 52.9398,1172.07 130,1008.5C 273.788,706.047 493.288,475.88 788.5,318C 935.614,240.95 1089.28,180.284 1249.5,136C 1438.8,83.941 1631.13,47.941 1826.5,28C 2045.35,4.75406 2264.69,-1.57927 2484.5,9C 2484.96,9.41395 2485.29,9.91395 2485.5,10.5C 2470.59,33.5782 2455.09,56.2449 2439,78.5C 2221.31,371.944 1975.81,641.777 1702.5,888C 1552.34,1022.2 1393.34,1144.53 1225.5,1255C 1074.28,1353.95 914.283,1437.29 745.5,1505C 583.29,1569.55 415.29,1610.55 241.5,1628C 161.271,1633.78 80.9379,1635.94 0.5,1634.5C 0.820506,1629.31 0.487173,1624.31 -0.5,1619.5 Z"/></g>
<g><path style="opacity:1" fill="#0cb48c" d="M 1551.5,1386.5 C 1550.95,1388.39 1549.95,1390.06 1548.5,1391.5C 1549.26,1391.91 1550.26,1392.08 1551.5,1392C 1549.24,1393.26 1546.9,1394.42 1544.5,1395.5C 1545.64,1396.89 1545.64,1398.22 1544.5,1399.5C 1540.9,1401.37 1537.23,1403.03 1533.5,1404.5C 1539.17,1398.17 1545.17,1392.17 1551.5,1386.5 Z"/></g>
</svg>
